#!OML:ASF F:\VICON\USERDATA\INSTALL\rory3\rory3.ASF
:FULLY-SPECIFIED
:DEGREES
637
root 1.29449 16.9027 14.5282 24.1312 -67.5823 -5.56628
lowerback -3.38641 2.03785 -0.883783
upperback -7.62746 2.7161 4.24849
thorax -6.31232 1.46715 4.89873
lowerneck -1.3245 -17.1046 -12.416
upperneck 27.7193 -28.2367 11.7877
head 13.0665 -13.3 2.3572
rclavicle 9.81499e-015 7.95139e-015
rhumerus -196.315 -201.625 70.8093
rradius 34.7881
rwrist -77.4105
rhand -38.0816 1.02173
rfingers 7.12502
rthumb -11.1179 -28.6638
lclavicle 9.81499e-015 7.95139e-015
lhumerus 4.12634 -76.7765 102.192
lradius 71.095
lwrist 41.2811
lhand 0.497632 19.9149
lfingers 7.12502
lthumb 26.0669 48.1463
rfemur -45.5549 -18.2729 11.0875
rtibia 45.8058
rfoot -67.988 -22.4095
rtoes 60.7785
lfemur -41.8756 14.3337 -27.4604
ltibia 39.5303
lfoot -52.8602 29.0456
ltoes 32.918
638
root 1.27609 16.9174 14.4673 25.793 -68.4672 -6.99383
lowerback -3.82009 1.98002 0.211788
upperback -7.55269 2.62004 4.50176
thorax -5.9321 1.3505 4.56311
lowerneck -1.62955 -16.754 -11.929
upperneck 27.6421 -27.5611 11.3982
head 12.8329 -12.9863 2.28412
rclavicle -1.26725e-014 3.02153e-014
rhumerus -197.851 -208.859 69.3533
rradius 37.617
rwrist -79.9904
rhand -36.8851 0.281549
rfingers 7.12502
rthumb -9.96375 -29.4626
lclavicle -1.26725e-014 3.02153e-014
lhumerus 1.39636 -76.3302 104.894
lradius 73.0419
lwrist 44.148
lhand 2.54274 19.383
lfingers 7.12502
lthumb 28.0235 47.3105
rfemur -45.7612 -18.841 11.8238
rtibia 45.1694
rfoot -69.9327 -19.6232
rtoes 61.2815
lfemur -42.0928 14.3882 -26.7437
ltibia 39.4826
lfoot -54.1526 28.5165
ltoes 33.7302
639
root 1.2616 16.9378 14.4044 28.8059 -69.3625 -9.70761
lowerback -4.23398 2.24248 1.755
upperback -7.56174 2.93333 4.72765
thorax -5.66337 1.41412 3.94253
lowerneck -1.94231 -16.6623 -11.3071
upperneck 27.6226 -27.263 10.8789
head 12.6441 -12.832 2.07104
rclavicle 1.78906e-015 3.18055e-015
rhumerus -199.291 -214.572 68.2807
rradius 40.4871
rwrist -81.6689
rhand -35.1635 -0.397104
rfingers 7.12502
rthumb -8.30252 -30.2139
lclavicle 1.78906e-015 3.18055e-015
lhumerus 4.49601 -76.6597 100.128
lradius 76.8489
lwrist 48.5792
lhand 3.47825 19.3791
lfingers 7.12502
lthumb 28.9175 47.157
rfemur -46.0145 -18.3378 12.6441
rtibia 44.456
rfoot -71.0189 -19.7972
rtoes 61.0815
lfemur -42.4942 14.5216 -25.6259
ltibia 39.4544
lfoot -55.6053 28.0016
ltoes 34.416
640
root 1.24698 16.9537 14.3432 30.582 -70.5317 -11.232
lowerback -4.39914 2.45443 2.62581
upperback -7.54194 3.18795 4.8285
thorax -5.52273 1.48868 3.56575
lowerneck -2.33393 -16.5406 -10.5597
upperneck 27.6355 -26.9346 10.331
head 12.4612 -12.6526 1.83134
rclavicle 2.6339e-015 1.59028e-014
rhumerus -201.49 -220.521 67.1291
rradius 44.2458
rwrist -83.2235
rhand -32.9192 -1.22099
rfingers 7.12502
rthumb -6.13619 -31.1121
lclavicle 2.6339e-015 1.59028e-014
lhumerus 5.55328 -76.4862 97.8434
lradius 79.7639
lwrist 51.5067
lhand 2.3648 19.4081
lfingers 7.12502
lthumb 27.8534 47.3633
rfemur -46.1882 -17.7923 12.6825
rtibia 43.8165
rfoot -71.2806 -21.72
rtoes 60.9227
lfemur -42.5526 14.4461 -24.993
ltibia 39.2641
lfoot -57.3448 27.5024
ltoes 35.2643
641
root 1.23487 16.968 14.2771 32.0357 -72.1418 -12.6409
lowerback -4.2659 2.68797 3.05861
upperback -7.40887 3.49403 4.88731
thorax -5.44923 1.61673 3.37996
lowerneck -2.76751 -16.3796 -9.7431
upperneck 27.6244 -26.5715 9.82799
head 12.2767 -12.4479 1.60094
rclavicle 1.13804e-014 2.54444e-014
rhumerus -203.062 -224.807 66.0829
rradius 46.9662
rwrist -82.9856
rhand -30.2938 -1.70128
rfingers 7.12502
rthumb -3.60116 -31.6506
lclavicle 1.13804e-014 2.54444e-014
lhumerus 6.13061 -76.4095 96.1059
lradius 82.3775
lwrist 53.6669
lhand 6.13443 19.662
lfingers 7.12502
lthumb 31.4514 46.9764
rfemur -46.1317 -16.3352 12.1693
rtibia 43.2416
rfoot -72.1232 -21.7063
rtoes 61.0243
lfemur -42.1662 14.1678 -24.4158
ltibia 38.949
lfoot -59.6839 26.7695
ltoes 36.6904
642
root 1.18261 16.9763 14.1957 29.4275 -72.967 -9.98382
lowerback -4.54109 2.41251 2.28414
upperback -7.17791 3.11264 4.91893
thorax -5.0736 1.47363 3.85872
lowerneck -3.17448 -16.2182 -9.18071
upperneck 27.5731 -26.2009 9.39127
head 12.1268 -12.2569 1.42397
rclavicle -6.34123e-014 -4.77083e-015
rhumerus -203.22 -226.485 65.5436
rradius 48.0669
rwrist -81.0013
rhand -27.5177 -1.98474
rfingers 7.12502
rthumb -0.920105 -31.9625
lclavicle -6.34123e-014 -4.77083e-015
lhumerus 4.70247 -75.683 96.7253
lradius 84.2544
lwrist 54.4976
lhand 7.8949 18.8864
lfingers 7.12502
lthumb 33.1271 45.8597
rfemur -45.6849 -16.7697 11.0613
rtibia 42.9206
rfoot -71.9793 -20.6588
rtoes 61.1951
lfemur -41.5037 14.1034 -25.0481
ltibia 38.4276
lfoot -60.0037 26.5273
ltoes 37.1151
643
root 1.13673 16.9736 14.1376 27.405 -73.713 -7.86571
lowerback -4.85273 2.14508 1.9831
upperback -7.04043 2.73595 5.10317
thorax -4.75623 1.30406 4.23263
lowerneck -3.43032 -15.9291 -8.97922
upperneck 27.654 -25.5867 8.77535
head 12.0024 -12.012 1.28146
rclavicle -2.9122e-014 -7.95139e-015
rhumerus -205.765 -230.375 64.7747
rradius 52.2881
rwrist -81.8415
rhand -26.0637 -1.44838
rfingers 7.12502
rthumb 0.484257 -31.4276
lclavicle -2.9122e-014 -7.95139e-015
lhumerus 3.31875 -74.9456 97.3005
lradius 86.1632
lwrist 54.9113
lhand 9.51654 18.1302
lfingers 7.12502
lthumb 34.6677 44.7632
rfemur -45.5636 -17.8178 10.5014
rtibia 42.7002
rfoot -70.707 -20.4065
rtoes 61.1257
lfemur -40.8299 13.0486 -25.1566
ltibia 37.8788
lfoot -61.543 26.1224
ltoes 38.2486
644
root 1.10134 16.9645 14.0719 24.6961 -74.4489 -5.0004
lowerback -5.11787 1.87583 1.78508
upperback -6.88231 2.35883 5.03469
thorax -4.41929 1.1232 4.27648
lowerneck -3.73967 -15.5872 -8.42155
upperneck 27.6518 -24.9426 8.24418
head 11.8224 -11.7175 1.12615
rclavicle 3.15074e-014 -4.45278e-014
rhumerus -206.379 -232.012 64.4024
rradius 54.3745
rwrist -81.2863
rhand -22.7033 -1.39367
rfingers 7.12502
rthumb 3.72966 -31.3408
lclavicle 3.15074e-014 -4.45278e-014
lhumerus 3.32589 -74.5578 95.9983
lradius 88.2319
lwrist 55.6216
lhand 10.6794 17.5358
lfingers 7.12502
lthumb 35.7705 43.9084
rfemur -45.6358 -18.6909 9.85913
rtibia 42.6067
rfoot -69.7613 -18.9772
rtoes 61.1959
lfemur -40.2505 11.9146 -25.4243
ltibia 37.3127
lfoot -63.0595 25.5744
ltoes 39.1726
645
root 1.05887 16.9645 13.9639 22.4535 -75.9259 -2.66809
lowerback -5.2524 1.93568 1.2339
upperback -6.66762 2.44042 4.76058
thorax -4.13055 1.1863 4.3027
lowerneck -4.12532 -15.1852 -7.87958
upperneck 27.8772 -24.5062 8.38204
head 11.8862 -11.4402 1.13678
rclavicle 7.65321e-015 -2.54444e-014
rhumerus -206.734 -233.314 64.2195
rradius 56.8214
rwrist -80.7502
rhand -18.8104 -1.58132
rfingers 7.12502
rthumb 7.48817 -31.4288
lclavicle 7.65321e-015 -2.54444e-014
lhumerus 4.16204 -74.7278 93.3343
lradius 90.3422
lwrist 56.7077
lhand 11.6861 16.9561
lfingers 7.12502
lthumb 36.7238 43.0915
rfemur -45.6783 -17.6114 8.91336
rtibia 42.5516
rfoot -70.066 -15.3391
rtoes 61.6562
lfemur -39.779 12.5872 -25.9663
ltibia 36.8719
lfoot -63.3176 25.2552
ltoes 39.4084
